<svg width="267" height="67" viewBox="0 0 267 67" fill="none" xmlns="http://www.w3.org/2000/svg">
<path d="M14.2151 24H230.215L220 52H3.71507L14.2151 24Z" fill="rgb(80, 72, 153)" fill-opacity="0.2"/>
<path d="M250.509 18.016C255.885 18.016 260.045 19.808 262.861 23.52C265.421 26.848 266.765 31.456 266.829 37.344H241.741C241.997 40.544 242.829 43.04 244.365 44.768C245.901 46.432 248.013 47.328 250.701 47.328C253.069 47.328 254.989 46.752 256.461 45.664C257.613 44.768 258.573 43.296 259.469 41.376H266.253C265.485 44.448 264.013 47.072 261.709 49.12C258.829 51.616 255.181 52.896 250.765 52.896C245.901 52.896 241.997 51.36 239.181 48.352C236.109 45.152 234.573 40.864 234.573 35.424C234.573 30.496 235.981 26.4 238.925 23.072C241.741 19.68 245.645 18.016 250.509 18.016ZM250.701 23.584C248.141 23.584 246.157 24.288 244.621 25.824C243.213 27.296 242.253 29.408 241.869 32.224H259.725C259.085 26.464 256.077 23.584 250.701 23.584Z" fill="rgb(80, 72, 153)"/>
<path d="M201 18.912H208.36L216.68 43.552L225 18.912H232.36L220.072 52H213.288L201 18.912Z" fill="rgb(80, 72, 153)"/>
<path d="M237.063 11.2514C238.678 6.6523 236.259 1.61488 231.66 0L213.397 52.012C220.072 53.5 223.033 51.2077 224.648 46.6086L237.063 11.2514Z" fill="rgb(80, 72, 153)"/>
<path d="M191.918 5.66399C193.262 5.66399 194.414 6.04799 195.31 6.94398C196.206 7.77599 196.654 8.86399 196.654 10.208C196.654 11.552 196.142 12.64 195.246 13.536C194.35 14.368 193.198 14.816 191.918 14.816C190.574 14.816 189.486 14.368 188.59 13.536C187.694 12.64 187.246 11.488 187.246 10.208C187.246 8.86399 187.694 7.77599 188.59 6.94398C189.486 6.04799 190.574 5.66399 191.918 5.66399ZM188.526 18.912H195.31V52H188.526V18.912Z" fill="rgb(80, 72, 153)"/>
<path d="M172.676 5.40799H179.46V52H173.124V48.032C170.82 51.232 167.364 52.896 162.884 52.896C158.02 52.896 154.18 51.168 151.428 47.712C148.868 44.512 147.588 40.352 147.588 35.296C147.588 30.432 148.804 26.4 151.364 23.2C154.052 19.744 157.828 18.016 162.564 18.016C166.596 18.016 169.988 19.936 172.676 23.84V5.40799ZM164.1 23.52C160.772 23.52 158.276 24.608 156.676 26.912C155.268 28.832 154.564 31.648 154.564 35.296C154.564 38.944 155.204 41.76 156.548 43.808C158.084 46.176 160.58 47.392 163.908 47.392C166.852 47.392 169.092 46.176 170.756 43.872C172.164 41.76 172.868 39.072 172.868 35.744V35.168C172.868 31.584 171.972 28.704 170.308 26.528C168.644 24.48 166.596 23.52 164.1 23.52Z" fill="rgb(80, 72, 153)"/>
<path d="M125.912 18.016C130.904 18.016 134.936 19.68 137.944 23.008C140.888 26.272 142.424 30.432 142.424 35.488C142.424 40.48 140.952 44.64 138.008 47.84C134.936 51.168 130.904 52.896 125.912 52.896C120.92 52.896 116.888 51.168 113.816 47.84C110.872 44.64 109.4 40.48 109.4 35.488C109.4 30.432 110.872 26.272 113.88 23.008C116.888 19.68 120.92 18.016 125.912 18.016ZM125.912 23.584C122.776 23.584 120.344 24.8 118.616 27.296C117.08 29.408 116.376 32.16 116.376 35.488C116.376 38.816 117.08 41.504 118.616 43.616C120.344 46.048 122.776 47.328 125.912 47.328C129.048 47.328 131.48 46.048 133.272 43.616C134.808 41.44 135.576 38.752 135.576 35.488C135.576 32.16 134.808 29.408 133.272 27.296C131.48 24.8 129.048 23.584 125.912 23.584Z" fill="rgb(80, 72, 153)"/>
<path d="M97.6656 8.22398V18.912H105.218V24.544H97.6656V43.744C97.6656 44.64 97.8576 45.28 98.2416 45.728C98.6256 46.112 99.2016 46.368 100.034 46.368H104.386V52H98.9456C96.1296 52 94.0176 51.232 92.7376 49.76C91.4576 48.352 90.8816 46.368 90.8816 43.744V24.544H84.7376V18.912H90.8816V11.04L97.6656 8.22398Z" fill="rgb(80, 72, 153)"/>
<path d="M50.6801 18.912H57.4641V39.072C57.4641 41.888 58.0401 43.936 59.2561 45.216C60.4081 46.496 62.3281 47.2 64.9521 47.2C66.7441 47.2 68.3441 46.432 69.8801 45.024C71.4161 43.552 72.5041 41.568 73.0801 39.136V18.912H79.8641V52H73.0801V47.52C70.2641 51.104 66.8081 52.896 62.6481 52.896C54.6481 52.896 50.6801 48.416 50.6801 39.52V18.912Z" fill="rgb(80, 72, 153)"/>
<path d="M22 6.5L29.2511 6.30399L46.8511 52H39.3631L35.0751 40.224H15.4271L11.1391 52H3.71507L22 6.5ZM17.5391 34.464H32.9631L25.4111 13.792H25.1551L17.5391 34.464Z" fill="rgb(80, 72, 153)"/>
<path d="M0.924 55.417C-0.690883 60.016 1.72829 65.0534 6.32737 66.6683L29.2511 6.30399C22 5 17.669 7.7283 16.0541 12.3274L0.924 55.417Z" fill="rgb(80, 72, 153)"/>
</svg>
